# xmcd CD database file
#
# Track frame offsets:
#	150
#	37667
#	70067
#	108515
#	164003
#	208115
#	259619
#
# Disc length: 4205 seconds
#
# Revision: 0
# Processed by: cddbd v1.5.2PL0 Copyright (c) Steve Scherf et al.
# Submitted via: CDex 1.51
#
DISCID=5b106b07
DTITLE=Kenny Barron - Live At Fat Tuesdays
DYEAR=1988
DGENRE=Jazz
TTITLE0=There Is No Greater Love
TTITLE1=Misterioso
TTITLE2=Lunacy
TTITLE3=Sand Dune
TTITLE4=518
TTITLE5=Something For Ramone
TTITLE6=Dreams
EXTD=YEAR: 1988
EXTT0=
EXTT1=
EXTT2=
EXTT3=
EXTT4=
EXTT5=
EXTT6=
PLAYORDER=
